HIERARCHY
ROOT Hip
{
	OFFSET	0.0000	0.0000	0.0000
	CHANNELS 6 Xposition Yposition Zposition Xrotation Yrotation Zrotation
	JOINT LowerSpine
	{
		OFFSET	0.0000	10.0859	-5.4579
		CHANNELS 3 Xrotation Yrotation Zrotation
		JOINT MiddleSpine
		{
			OFFSET	0.0000	9.2041	0.4808
			CHANNELS 3 Xrotation Yrotation Zrotation
			JOINT Chest
			{
				OFFSET	0.0000	11.3891	-2.5351
				CHANNELS 3 Xrotation Yrotation Zrotation
				JOINT Neck
				{
					OFFSET	0.0000	25.6648	-0.5337
					CHANNELS 3 Xrotation Yrotation Zrotation
					JOINT Head
					{
						OFFSET	0.0000	14.4932	3.9421
						CHANNELS 3 Xrotation Yrotation Zrotation
						End Site
						{
							OFFSET	0.0001	20.2508	0.6045
						}
					}
				}
				JOINT LClavicle
				{
					OFFSET	2.5911	24.7678	8.4856
					CHANNELS 3 Xrotation Yrotation Zrotation
					JOINT LShoulder
					{
						OFFSET	15.1374	3.5526	-5.7484
						CHANNELS 3 Xrotation Yrotation Zrotation
						JOINT LForearm
						{
							OFFSET	32.1549	-0.1142	-0.2786
							CHANNELS 3 Xrotation Yrotation Zrotation
							JOINT LHand
							{
								OFFSET	26.8240	0.0778	-0.1606
								CHANNELS 3 Xrotation Yrotation Zrotation
								JOINT LFinger1
								{
									OFFSET	10.3962	0.9092	2.8875
									CHANNELS 3 Xrotation Yrotation Zrotation
									JOINT LFinger11
									{
										OFFSET	3.8887	-0.9483	0.6852
										CHANNELS 3 Xrotation Yrotation Zrotation
										JOINT LFinger12
										{
											OFFSET	2.6547	-0.6476	0.4680
											CHANNELS 3 Xrotation Yrotation Zrotation
											End Site
											{
												OFFSET	1.8891	-0.5639	0.3064
											}
										}
									}
								}
								JOINT LFinger2
								{
									OFFSET	10.5514	1.0500	0.2514
									CHANNELS 3 Xrotation Yrotation Zrotation
									JOINT LFinger21
									{
										OFFSET	4.8082	0.0134	-0.0284
										CHANNELS 3 Xrotation Yrotation Zrotation
										JOINT LFinger22
										{
											OFFSET	2.6650	0.0081	-0.0162
											CHANNELS 3 Xrotation Yrotation Zrotation
											End Site
											{
												OFFSET	2.3938	-0.1690	0.0032
											}
										}
									}
								}
								JOINT LFinger3
								{
									OFFSET	9.9996	0.7006	-2.3657
									CHANNELS 3 Xrotation Yrotation Zrotation
									JOINT LFinger31
									{
										OFFSET	4.3629	-0.2209	-0.2731
										CHANNELS 3 Xrotation Yrotation Zrotation
										JOINT LFinger32
										{
											OFFSET	2.4861	-0.1251	-0.1562
											CHANNELS 3 Xrotation Yrotation Zrotation
											End Site
											{
												OFFSET	2.1982	-0.2703	-0.1039
											}
										}
									}
								}
								JOINT LFinger4
								{
									OFFSET	9.2792	-0.7052	-4.0856
									CHANNELS 3 Xrotation Yrotation Zrotation
									JOINT LFinger41
									{
										OFFSET	2.6836	-0.5596	-0.7408
										CHANNELS 3 Xrotation Yrotation Zrotation
										JOINT LFinger42
										{
											OFFSET	1.9679	-0.4099	-0.5436
											CHANNELS 3 Xrotation Yrotation Zrotation
											End Site
											{
												OFFSET	1.7467	-0.4799	-0.4007
											}
										}
									}
								}
								JOINT LFinger0
								{
									OFFSET	2.1505	-1.6278	1.6303
									CHANNELS 3 Xrotation Yrotation Zrotation
									JOINT LFinger01
									{
										OFFSET	4.0040	-1.3151	3.0189
										CHANNELS 3 Xrotation Yrotation Zrotation
										JOINT LFinger02
										{
											OFFSET	2.6366	-0.9434	1.8996
											CHANNELS 3 Xrotation Yrotation Zrotation
											End Site
											{
												OFFSET	1.9389	-0.6674	1.3277
											}
										}
									}
								}
							}
						}
					}
				}
				JOINT RClavicle
				{
					OFFSET	-2.5911	24.7678	8.4856
					CHANNELS 3 Xrotation Yrotation Zrotation
					JOINT RShoulder
					{
						OFFSET	-15.1401	3.5532	-5.7494
						CHANNELS 3 Xrotation Yrotation Zrotation
						JOINT RForearm
						{
							OFFSET	-32.1549	-0.1142	-0.2786
							CHANNELS 3 Xrotation Yrotation Zrotation
							JOINT RHand
							{
								OFFSET	-26.8240	0.0779	-0.1606
								CHANNELS 3 Xrotation Yrotation Zrotation
								JOINT RFinger1
								{
									OFFSET	-10.3962	0.9092	2.8875
									CHANNELS 3 Xrotation Yrotation Zrotation
									JOINT RFinger11
									{
										OFFSET	-3.8887	-0.9483	0.6852
										CHANNELS 3 Xrotation Yrotation Zrotation
										JOINT RFinger12
										{
											OFFSET	-2.6547	-0.6476	0.4680
											CHANNELS 3 Xrotation Yrotation Zrotation
											End Site
											{
												OFFSET	-1.8891	-0.5639	0.3064
											}
										}
									}
								}
								JOINT RFinger2
								{
									OFFSET	-10.5514	1.0500	0.2514
									CHANNELS 3 Xrotation Yrotation Zrotation
									JOINT RFinger21
									{
										OFFSET	-4.8082	0.0134	-0.0284
										CHANNELS 3 Xrotation Yrotation Zrotation
										JOINT RFinger22
										{
											OFFSET	-2.6650	0.0081	-0.0162
											CHANNELS 3 Xrotation Yrotation Zrotation
											End Site
											{
												OFFSET	-2.3938	-0.1690	0.0032
											}
										}
									}
								}
								JOINT RFinger3
								{
									OFFSET	-9.9996	0.7006	-2.3657
									CHANNELS 3 Xrotation Yrotation Zrotation
									JOINT RFinger31
									{
										OFFSET	-4.3629	-0.2209	-0.2731
										CHANNELS 3 Xrotation Yrotation Zrotation
										JOINT RFinger32
										{
											OFFSET	-2.4861	-0.1251	-0.1562
											CHANNELS 3 Xrotation Yrotation Zrotation
											End Site
											{
												OFFSET	-2.1982	-0.2703	-0.1039
											}
										}
									}
								}
								JOINT RFinger4
								{
									OFFSET	-9.2792	-0.7052	-4.0856
									CHANNELS 3 Xrotation Yrotation Zrotation
									JOINT RFinger41
									{
										OFFSET	-2.6836	-0.5596	-0.7408
										CHANNELS 3 Xrotation Yrotation Zrotation
										JOINT RFinger42
										{
											OFFSET	-1.9679	-0.4099	-0.5436
											CHANNELS 3 Xrotation Yrotation Zrotation
											End Site
											{
												OFFSET	-1.7467	-0.4799	-0.4007
											}
										}
									}
								}
								JOINT RFinger0
								{
									OFFSET	-2.1505	-1.6278	1.6303
									CHANNELS 3 Xrotation Yrotation Zrotation
									JOINT RFinger01
									{
										OFFSET	-4.0040	-1.3151	3.0189
										CHANNELS 3 Xrotation Yrotation Zrotation
										JOINT RFinger02
										{
											OFFSET	-2.6366	-0.9434	1.8996
											CHANNELS 3 Xrotation Yrotation Zrotation
											End Site
											{
												OFFSET	-1.9389	-0.6674	1.3277
											}
										}
									}
								}
							}
						}
					}
				}
			}
		}
	}
	JOINT RThigh
	{
		OFFSET	-10.7894	4.5591	-0.8894
		CHANNELS 3 Xrotation Yrotation Zrotation
		JOINT RShin
		{
			OFFSET	-0.8633	-46.9290	0.0000
			CHANNELS 3 Xrotation Yrotation Zrotation
			JOINT RFoot
			{
				OFFSET	0.0000	-46.0814	0.0000
				CHANNELS 3 Xrotation Yrotation Zrotation
				JOINT RToe
				{
					OFFSET	0.0000	-5.0648	10.5911
					CHANNELS 3 Xrotation Yrotation Zrotation
					End Site
					{
						OFFSET	0.0000	0.0000	7.1051
					}
				}
			}
		}
	}
	JOINT LThigh
	{
		OFFSET	10.7893	4.5594	-0.8894
		CHANNELS 3 Xrotation Yrotation Zrotation
		JOINT LShin
		{
			OFFSET	0.8634	-46.9293	0.0000
			CHANNELS 3 Xrotation Yrotation Zrotation
			JOINT LFoot
			{
				OFFSET	0.0000	-46.0814	0.0000
				CHANNELS 3 Xrotation Yrotation Zrotation
				JOINT LToe
				{
					OFFSET	0.0000	-5.0648	10.5911
					CHANNELS 3 Xrotation Yrotation Zrotation
					End Site
					{
						OFFSET	0.0000	0.0000	7.1051
					}
				}
			}
		}
	}
}
MOTION
Frames:	4
Frame Time: 0.0333333000
	0.0390	96.6476	2.8198	-4.456467	-0.000005	-3.077760	0.000000	0.000000	0.000000	1.743716	-0.437706	0.444176	5.820770	-1.404485	1.532120	0.000000	0.000000	0.000000	0.000000	0.000000	0.000000	0.000000	0.000000	-15.210080	2.351251	-8.920637	-60.432860	-2.553863	-25.403890	-9.169353	0.000000	0.000000	0.000000	0.000000	0.000000	0.000000	0.000000	0.000000	0.000000	0.000000	0.000000	0.000000	0.000000	0.000000	0.000000	0.000000	0.000000	0.000000	0.000000	0.000000	0.000000	0.000000	0.000000	0.000000	0.000000	0.000000	0.000000	0.000000	0.000000	0.000000	0.000000	0.000000	0.000000	0.000000	0.000000	0.000000	0.000000	0.000000	0.000000	0.000000	0.000000	0.000000	0.000000	0.000000	0.000000	0.000000	0.000000	0.000000	0.000000	0.000000	15.428310	2.147439	8.474932	61.636880	-2.096041	20.922750	6.928158	0.000000	0.000000	0.000000	0.000000	0.000000	0.000000	0.000000	0.000000	0.000000	0.000000	0.000000	0.000000	0.000000	0.000000	0.000000	0.000000	0.000000	0.000000	0.000000	0.000000	0.000000	0.000000	0.000000	0.000000	0.000000	0.000000	0.000000	0.000000	0.000000	0.000000	0.000000	0.000000	0.000000	0.000000	0.000000	0.000000	0.000000	0.000000	0.000000	0.000000	0.000000	0.000000	0.000000	0.000000	0.000000	0.000000	0.000000	0.000000	-4.222003	-0.959756	1.393010	25.325280	-0.929787	0.945048	0.121196	-0.651638	-0.310536	-0.718739	0.000000	0.000000	-3.898795	0.180483	5.781453	25.305490	0.754461	-0.161757	-3.731452	-0.411289	-0.213774	-0.986450	0.000000	0.000000
	0.1234	96.7499	2.7592	-4.685961	0.510076	-2.948641	0.000000	0.000000	0.000000	1.833381	-0.404926	0.432561	6.138607	-1.296277	1.487697	0.000000	0.000000	0.000000	0.000000	0.000000	0.000000	0.000000	0.000000	-15.205200	-0.975619	-3.365702	-60.735130	-2.871716	-24.090480	-12.361960	0.000000	0.000000	0.000000	0.000000	0.000000	0.000000	0.000000	0.000000	0.000000	0.000000	0.000000	0.000000	0.000000	0.000000	0.000000	0.000000	0.000000	0.000000	0.000000	0.000000	0.000000	0.000000	0.000000	0.000000	0.000000	0.000000	0.000000	0.000000	0.000000	0.000000	0.000000	0.000000	0.000000	0.000000	0.000000	0.000000	0.000000	0.000000	0.000000	0.000000	0.000000	0.000000	0.000000	0.000000	0.000000	0.000000	0.000000	0.000000	0.000000	0.000000	15.416790	-1.395006	2.568558	61.910240	-2.482030	19.533790	9.470634	0.000000	0.000000	0.000000	0.000000	0.000000	0.000000	0.000000	0.000000	0.000000	0.000000	0.000000	0.000000	0.000000	0.000000	0.000000	0.000000	0.000000	0.000000	0.000000	0.000000	0.000000	0.000000	0.000000	0.000000	0.000000	0.000000	0.000000	0.000000	0.000000	0.000000	0.000000	0.000000	0.000000	0.000000	0.000000	0.000000	0.000000	0.000000	0.000000	0.000000	0.000000	0.000000	0.000000	0.000000	0.000000	0.000000	0.000000	0.000000	-4.001997	-1.058767	1.174646	25.326990	-0.877397	1.140809	0.087866	-0.916121	-0.436786	-0.161561	0.000000	0.000000	-3.520525	0.145507	5.614941	24.289440	0.648198	-0.065321	-3.459433	-0.552787	-0.285372	-0.484033	0.000000	0.000000
	0.1589	96.7971	2.7239	-4.772364	0.686271	-2.902914	0.000000	0.000000	0.000000	1.864497	-0.396096	0.427882	6.229804	-1.265535	1.474053	0.000000	0.000000	0.000000	0.000000	0.000000	0.000000	0.000000	0.000000	-15.204260	-1.824398	-2.077878	-60.851410	-2.796176	-23.438740	-12.795370	0.000000	0.000000	0.000000	0.000000	0.000000	0.000000	0.000000	0.000000	0.000000	0.000000	0.000000	0.000000	0.000000	0.000000	0.000000	0.000000	0.000000	0.000000	0.000000	0.000000	0.000000	0.000000	0.000000	0.000000	0.000000	0.000000	0.000000	0.000000	0.000000	0.000000	0.000000	0.000000	0.000000	0.000000	0.000000	0.000000	0.000000	0.000000	0.000000	0.000000	0.000000	0.000000	0.000000	0.000000	0.000000	0.000000	0.000000	0.000000	0.000000	0.000000	15.410320	-2.416461	1.338900	61.940400	-2.423360	18.610800	9.814954	0.000000	0.000000	0.000000	0.000000	0.000000	0.000000	0.000000	0.000000	0.000000	0.000000	0.000000	0.000000	0.000000	0.000000	0.000000	0.000000	0.000000	0.000000	0.000000	0.000000	0.000000	0.000000	0.000000	0.000000	0.000000	0.000000	0.000000	0.000000	0.000000	0.000000	0.000000	0.000000	0.000000	0.000000	0.000000	0.000000	0.000000	0.000000	0.000000	0.000000	0.000000	0.000000	0.000000	0.000000	0.000000	0.000000	0.000000	0.000000	-3.937451	-1.106252	1.204667	25.365250	-0.932034	0.963888	0.106744	-0.882432	-0.421035	0.000976	0.000000	0.000000	-3.300469	0.142654	5.531028	23.736660	0.616811	-0.037824	-3.388494	-0.496541	-0.255703	-0.212769	0.000000	0.000000
	0.1582	96.8152	2.6958	-4.818995	0.785716	-2.894546	0.000000	0.000000	0.000000	1.871611	-0.397601	0.426080	6.250858	-1.270297	1.469010	0.000000	0.000000	0.000000	0.000000	0.000000	0.000000	0.000000	0.000000	-15.200900	-2.037233	-2.516053	-61.043500	-2.450896	-22.351020	-11.891930	0.000000	0.000000	0.000000	0.000000	0.000000	0.000000	0.000000	0.000000	0.000000	0.000000	0.000000	0.000000	0.000000	0.000000	0.000000	0.000000	0.000000	0.000000	0.000000	0.000000	0.000000	0.000000	0.000000	0.000000	0.000000	0.000000	0.000000	0.000000	0.000000	0.000000	0.000000	0.000000	0.000000	0.000000	0.000000	0.000000	0.000000	0.000000	0.000000	0.000000	0.000000	0.000000	0.000000	0.000000	0.000000	0.000000	0.000000	0.000000	0.000000	0.000000	15.404670	-2.571102	1.613446	62.014040	-2.302758	17.969930	9.472203	0.000000	0.000000	0.000000	0.000000	0.000000	0.000000	0.000000	0.000000	0.000000	0.000000	0.000000	0.000000	0.000000	0.000000	0.000000	0.000000	0.000000	0.000000	0.000000	0.000000	0.000000	0.000000	0.000000	0.000000	0.000000	0.000000	0.000000	0.000000	0.000000	0.000000	0.000000	0.000000	0.000000	0.000000	0.000000	0.000000	0.000000	0.000000	0.000000	0.000000	0.000000	0.000000	0.000000	0.000000	0.000000	0.000000	0.000000	0.000000	-3.907539	-1.120128	1.333113	25.366080	-0.996378	0.703569	0.149457	-0.754699	-0.359873	-0.001368	0.000000	0.000000	-3.220397	0.154736	5.585549	23.557410	0.592212	-0.175921	-3.353481	-0.310182	-0.159607	-0.121753	0.000000	0.000000
